<svg width="214" height="38" viewBox="0 0 214 38" fill="none" xmlns="http://www.w3.org/2000/svg">
<path d="M188.882 37.24V0.236328H213.816V6.68667H196.706V15.5039H212.533V21.9543H196.706V30.7896H213.888V37.24H188.882Z" fill="#28005B"/>
<path d="M115.17 37.24V0.236328H139.671V6.68667H122.994V15.5039H138.044V21.9543H122.994V37.24H115.17Z" fill="#28005B"/>
<path d="M80.1638 37.24V0.236328H105.098V6.68667H87.9874V15.5039H103.815V21.9543H87.9874V30.7896H105.17V37.24H80.1638Z" fill="#28005B"/>
<path d="M171.665 15.2363H179.489V24.267C179.489 26.9652 178.844 29.3261 177.555 31.3497C176.279 33.3734 174.49 34.9513 172.189 36.0836C169.888 37.2038 167.208 37.7639 164.149 37.7639C161.077 37.7639 158.391 37.2038 156.09 36.0836C153.79 34.9513 152.001 33.3734 150.724 31.3497C149.447 29.3261 148.809 26.9652 148.809 24.267V15.2363H156.632V23.5985C156.632 25.0078 156.94 26.2605 157.554 27.3567C158.18 28.4528 159.06 29.3141 160.192 29.9404C161.324 30.5668 162.643 30.88 164.149 30.88C165.666 30.88 166.985 30.5668 168.106 29.9404C169.238 29.3141 170.111 28.4528 170.726 27.3567C171.352 26.2605 171.665 25.0078 171.665 23.5985V15.2363Z" fill="#28005B"/>
<path d="M148.671 4.15199V4.48982C148.671 6.57806 150.364 8.27092 152.452 8.27092H155.849C156.21 8.27092 156.494 7.9638 156.494 7.60239V4.15199C156.494 1.99159 154.743 0.240234 152.582 0.240234C150.422 0.240234 148.671 1.99159 148.671 4.15199Z" fill="#28005B"/>
<path d="M171.809 4.15199V4.48982C171.809 6.57806 173.502 8.27092 175.59 8.27092H178.987C179.349 8.27092 179.632 7.9638 179.632 7.60239V4.15199C179.632 1.99159 177.881 0.240234 175.721 0.240234C173.56 0.240234 171.809 1.99159 171.809 4.15199Z" fill="#28005B"/>
<path d="M38.6409 37.24V0.236328H46.4644V15.5039H62.3463V0.236328H70.1518V37.24H62.3463V21.9543H46.4644V37.24H38.6409Z" fill="#28005B"/>
<path d="M0 37.24V0.236328H7.82352V16.5519H8.31136L21.6276 0.236328H31.005L17.2732 16.8049L31.1676 37.24H21.8083L11.672 22.0266L7.82352 26.7243V37.24H0Z" fill="#28005B"/>
</svg>
