<svg width="214" height="38" viewBox="0 0 214 38" fill="none" xmlns="http://www.w3.org/2000/svg">
<path d="M188.882 37.0036V0H213.816V6.45034H196.706V15.2676H212.533V21.718H196.706V30.5533H213.888V37.0036H188.882Z" fill="white"/>
<path d="M115.17 37.0036V0H139.67V6.45034H122.993V15.2676H138.044V21.718H122.993V37.0036H115.17Z" fill="white"/>
<path d="M80.1641 37.0036V0H105.098V6.45034H87.9876V15.2676H103.815V21.718H87.9876V30.5533H105.17V37.0036H80.1641Z" fill="white"/>
<path d="M171.665 15H179.488V24.0307C179.488 26.7289 178.844 29.0898 177.555 31.1134C176.278 33.137 174.49 34.715 172.189 35.8473C169.888 36.9675 167.208 37.5276 164.148 37.5276C161.077 37.5276 158.391 36.9675 156.09 35.8473C153.789 34.715 152.001 33.137 150.724 31.1134C149.447 29.0898 148.809 26.7289 148.809 24.0307V15H156.632V23.3622C156.632 24.7715 156.939 26.0242 157.554 27.1203C158.18 28.2165 159.059 29.0777 160.192 29.7041C161.324 30.3305 162.643 30.6436 164.148 30.6436C165.666 30.6436 166.985 30.3305 168.105 29.7041C169.238 29.0777 170.111 28.2165 170.725 27.1203C171.352 26.0242 171.665 24.7715 171.665 23.3622V15Z" fill="white"/>
<path d="M148.671 3.91567V4.25349C148.671 6.34173 150.364 8.03459 152.452 8.03459H155.849C156.211 8.03459 156.494 7.72747 156.494 7.36607V3.91567C156.494 1.75526 154.743 0.00390625 152.583 0.00390625C150.422 0.00390625 148.671 1.75526 148.671 3.91567Z" fill="white"/>
<path d="M171.809 3.91567V4.25349C171.809 6.34173 173.501 8.03459 175.59 8.03459H178.987C179.348 8.03459 179.632 7.72747 179.632 7.36607V3.91567C179.632 1.75526 177.881 0.00390625 175.72 0.00390625C173.56 0.00390625 171.809 1.75526 171.809 3.91567Z" fill="white"/>
<path d="M38.6406 37.0036V0H46.4641V15.2676H62.3461V0H70.1515V37.0036H62.3461V21.718H46.4641V37.0036H38.6406Z" fill="white"/>
<path d="M0 37.0036V0H7.82352V16.3156H8.31136L21.6276 0H31.005L17.2732 16.5685L31.1676 37.0036H21.8083L11.672 21.7902L7.82352 26.488V37.0036H0Z" fill="white"/>
</svg>
