<svg width="214" height="38" viewBox="0 0 214 38" fill="none" xmlns="http://www.w3.org/2000/svg">
<path d="M188.882 37.2398V0.236206H213.816V6.68655H196.705V15.5038H212.533V21.9542H196.705V30.7895H213.888V37.2398H188.882Z" fill="#28005B"/>
<path d="M115.17 37.2398V0.236206H139.67V6.68655H122.993V15.5038H138.044V21.9542H122.993V37.2398H115.17Z" fill="#28005B"/>
<path d="M80.1641 37.2398V0.236206H105.098V6.68655H87.9876V15.5038H103.815V21.9542H87.9876V30.7895H105.17V37.2398H80.1641Z" fill="#28005B"/>
<path d="M171.665 15.2362H179.488V24.2669C179.488 26.9651 178.844 29.326 177.555 31.3496C176.278 33.3733 174.49 34.9512 172.189 36.0835C169.888 37.2037 167.208 37.7638 164.148 37.7638C161.077 37.7638 158.391 37.2037 156.09 36.0835C153.789 34.9512 152.001 33.3733 150.724 31.3496C149.447 29.326 148.809 26.9651 148.809 24.2669V15.2362H156.632V23.5984C156.632 25.0077 156.939 26.2604 157.554 27.3565C158.18 28.4527 159.059 29.3139 160.192 29.9403C161.324 30.5667 162.643 30.8798 164.148 30.8798C165.666 30.8798 166.985 30.5667 168.105 29.9403C169.238 29.3139 170.111 28.4527 170.725 27.3565C171.352 26.2604 171.665 25.0077 171.665 23.5984V15.2362Z" fill="#28005B"/>
<path d="M148.671 4.15163V4.48945C148.671 6.5777 150.364 8.27055 152.452 8.27055H155.849C156.211 8.27055 156.494 7.96343 156.494 7.60203V4.15163C156.494 1.99122 154.743 0.239868 152.583 0.239868C150.422 0.239868 148.671 1.99122 148.671 4.15163Z" fill="#28005B"/>
<path d="M171.809 4.15163V4.48945C171.809 6.5777 173.501 8.27055 175.59 8.27055H178.987C179.348 8.27055 179.632 7.96343 179.632 7.60203V4.15163C179.632 1.99122 177.881 0.239868 175.72 0.239868C173.56 0.239868 171.809 1.99122 171.809 4.15163Z" fill="#28005B"/>
<path d="M38.6406 37.2398V0.236206H46.4641V15.5038H62.3461V0.236206H70.1515V37.2398H62.3461V21.9542H46.4641V37.2398H38.6406Z" fill="#28005B"/>
<path d="M0 37.2398V0.236206H7.82352V16.5518H8.31136L21.6276 0.236206H31.005L17.2732 16.8047L31.1676 37.2398H21.8083L11.672 22.0264L7.82352 26.7242V37.2398H0Z" fill="#28005B"/>
</svg>
