<svg width="26" height="18" viewBox="0 0 26 18" fill="none" xmlns="http://www.w3.org/2000/svg">
<path d="M25.883 1.57907C25.8805 1.57372 25.8779 1.56841 25.875 1.56322C25.6755 1.18954 25.2246 0.744141 24.2103 0.744141C23.1436 0.744141 21.9828 1.22854 21.9339 1.24918C19.1202 2.37016 5.87688 9.3389 5.87688 9.3389L2.70556 7.63021C2.61176 7.5797 2.49922 7.57898 2.40495 7.62822L0.172266 8.7943C0.0780794 8.84342 0.0143965 8.93607 0.0021187 9.0416C-0.0100316 9.14713 0.0305827 9.25185 0.110962 9.32136L5.56717 14.0382C5.66688 14.1242 5.80882 14.1409 5.9254 14.0799L11.2535 11.2999L12.0597 16.9805C12.0744 17.0843 12.139 17.1744 12.2325 17.2216C12.2781 17.2446 12.3277 17.2561 12.3773 17.2561C12.4296 17.2561 12.4819 17.2433 12.5293 17.2179C13.0956 16.9133 13.4491 16.7205 13.7909 16.534C14.1391 16.344 14.4993 16.1474 15.0819 15.8344C15.1443 15.801 15.1937 15.7478 15.2227 15.6834L19.0147 7.24812L22.9126 5.21307C24.7351 4.28765 26.4725 2.84691 25.883 1.57907Z" fill="#051036"/>
</svg>
